<svg width="169" height="65" viewBox="0 0 169 65" fill="none" xmlns="http://www.w3.org/2000/svg">
    <path d="M33.4118 0H45.2451L54.9902 3.49462L61.951 9.08602L66.8235 15.3763L70.3039 24.4624L71 29.3548V35.6452L68.9118 44.0323L66.1274 44.7312L65.4314 41.9355L66.1274 38.4409L63.3431 39.1398H54.9902L51.5098 37.043L48.7255 32.1505V25.8602L52.2059 19.5699V16.0753L49.4216 11.1828L50.1176 5.5914L41.7647 3.49462H36.8922L33.4118 4.19355L37.5882 6.98925L38.9804 9.08602V13.9785L36.8922 17.4731L41.7647 19.5699L43.8529 22.3656V27.2581L41.7647 31.4516L38.9804 30.7527L39.6765 23.0645L36.1961 22.3656L29.9314 27.2581L22.2745 37.043L16.0098 44.0323L11.1373 51.7204L9.7451 54.5161L17.402 49.6237L20.1863 48.2258V46.828L25.7549 41.9355L32.7157 35.6452L36.8922 32.1505L39.6765 32.8495L38.9804 37.7419L41.0686 43.3333L45.9412 39.8387L50.8137 39.1398L55.6863 41.2366L59.8627 46.129L61.951 48.9247L63.3431 46.828H66.1274V50.3226L59.8627 57.3118L56.3824 60.1075L49.4216 63.6021L41.7647 65L32.0196 64.3011L25.0588 61.5054L22.2745 60.1075L18.7941 64.3011H15.3137L11.1373 58.7097L7.65686 57.3118L6.26471 55.914L4.87255 52.4194L0 48.2258L0.696078 44.7312L3.48039 42.6344H7.65686L9.7451 43.3333L8.35294 37.7419L7.65686 29.3548L4.17647 26.5591V22.3656L8.35294 18.871H11.1373L12.5294 15.3763L17.402 8.3871H18.7941V6.98925L26.451 2.09677L33.4118 0ZM25.0588 6.98925L19.4902 11.8817L15.3137 16.7742L14.6176 20.2688L22.2745 23.7634H24.3627L25.7549 17.4731L27.1471 16.0753L33.4118 15.3763L35.5 13.2796V9.78495L32.0196 7.68817L25.0588 6.98925ZM53.598 7.68817L52.902 11.1828L55.6863 16.0753L54.9902 21.6667L52.2059 26.5591V31.4516L55.6863 35.6452L59.8627 36.3441L67.5196 34.2473V27.957L64.7353 18.871L59.8627 11.8817L54.9902 7.68817H53.598ZM32.7157 18.172L27.8431 19.5699L27.1471 21.6667L28.5392 23.7634L34.1078 19.5699L35.5 18.172H32.7157ZM10.4412 21.6667L7.65686 23.7634L8.35294 25.8602L13.9216 30.0538V32.1505L11.8333 32.8495V38.4409L12.5294 41.2366L15.3137 39.8387L17.402 36.3441L16.0098 33.5484L20.1863 34.2473L24.3627 28.6559L22.2745 26.5591L10.4412 21.6667ZM34.8039 38.4409L29.2353 43.3333L30.6275 46.828L38.2843 57.3118L41.0686 54.5161L38.9804 47.5269L35.5 38.4409H34.8039ZM46.6373 43.3333L43.1569 47.5269L43.8529 55.2151L41.0686 59.4086L37.5882 60.1075L34.1078 56.6129L27.1471 46.828L24.3627 48.2258L20.1863 51.7204L20.8824 54.5161L27.1471 58.7097L32.7157 60.8064L35.5 61.5054H43.1569L52.2059 58.7097L58.4706 53.8172L59.1667 52.4194L56.3824 46.828L52.902 43.3333H46.6373ZM4.87255 45.4301L4.17647 47.5269L6.96078 49.6237H8.35294L9.04902 47.5269L4.87255 45.4301ZM15.3137 55.2151L13.9216 56.6129L16.7059 60.8064L18.098 60.1075L16.7059 55.2151H15.3137Z"
          fill="#1E8C81"/>
    <line x1="79.9213" y1="8.42133" x2="79.9213" y2="56.5787" stroke="#1E8C81" stroke-width="1.84266"
          stroke-linecap="round"/>
    <path d="M91.025 13.5H87.25V10.5H98.2V13.5H94.425V28H91.025V13.5ZM100.65 10.5H107.3C108.35 10.85 109.242 11.5 109.975 12.45C110.725 13.3833 111.1 14.5333 111.1 15.9C111.1 18.1333 110.217 19.775 108.45 20.825L110.975 28H107.475L105.35 21.625H104.025V28H100.65V10.5ZM104.025 13.5V18.825H106.175C106.459 18.7583 106.767 18.475 107.1 17.975C107.45 17.4583 107.625 16.8583 107.625 16.175C107.625 15.4917 107.475 14.8917 107.175 14.375C106.892 13.8583 106.609 13.5667 106.325 13.5H104.025ZM121.356 28L120.831 25.225H116.881L116.356 28H112.956L116.331 10.5H121.506L124.706 28H121.356ZM118.806 13.75L117.831 19.575L117.281 22.55H120.406L119.831 19.575L118.856 13.75H118.806ZM136.886 10.5L133.336 28H128.636L125.086 10.5H128.686L130.061 18.6L130.911 23.85H131.061L131.911 18.6L133.286 10.5H136.886ZM139.221 28V10.5H148.196V13.5H142.646V17.675H147.596V20.575H142.646V25.1H148.296V28H139.221ZM151.232 28V10.5H154.657V25.1H159.857V28H151.232Z"
          fill="#1E8C81"/>
    <path d="M91.025 41.5H87.25V38.5H98.2V41.5H94.425V56H91.025V41.5ZM100.65 56V38.5H104.075V56H100.65ZM113.86 48H113.76H113.86L115.185 42.525L116.26 38.5H119.385L120.51 56H117.235L116.76 46.45H116.635L114.835 53.5H112.785L110.985 46.45H110.86L110.385 56H107.11L108.235 38.5H111.36L112.435 42.525L113.76 48H113.86ZM123.524 56V38.5H132.499V41.5H126.949V45.675H131.899V48.575H126.949V53.1H132.599V56H123.524Z"
          fill="#1E8C81"/>
</svg>
